<svg xmlns="http://www.w3.org/2000/svg" width="24" height="24" viewBox="0 0 24 24">
    <path fill="#C8102E" fill-rule="evenodd" d="M16.896 9.182v-4.04H3.103v9.715h3.079v-5.13a.565.565 0 0 1 .494-.545h10.22zm1.104 0h3.455c.285 0 .545.26.545.545v10.364c0 .285-.26.545-.545.545H6.727a.567.567 0 0 1-.545-.545V16h-3.63c-.29 0-.552-.272-.552-.571V4.57c-.001-.282.229-.544.5-.571h14.948c.289 0 .552.272.552.571v4.61zM7.273 19.545h13.636v-9.272H7.273v9.272zm10.093-8.542c.322-.033.64.235.634.533v3.939c0 .275-.272.525-.571.525h-8.85c-.302.004-.579-.248-.579-.525 0-.278.277-.53.58-.525h8.278v-3.414c-.006-.26.228-.505.508-.533z"/>
</svg>
