<svg xmlns="http://www.w3.org/2000/svg" xmlns:xlink="http://www.w3.org/1999/xlink" width="24" height="24" viewBox="0 0 24 24">
    <defs>
        <path id="a" d="M3.164 8C2.512 8 2 8.532 2 9.208v9.184c0 .676.512 1.208 1.164 1.208h7.218v2.417H8.519h-.023c-.14 0-.233.12-.233.241s.117.242.233.242h4.19c.14 0 .234-.097.234-.242s-.093-.241-.233-.241h-1.863V19.6h5.122v1.692c0 .676.513 1.208 1.165 1.208h3.725c.652 0 1.164-.532 1.164-1.208v-7.25c0-.677-.512-1.209-1.164-1.209h-1.63V9.208c0-.676-.512-1.208-1.164-1.208H3.164zm0 .483h14.901c.396 0 .699.314.699.725v3.625h-1.63c-.652 0-1.164.532-1.164 1.209v5.075H3.164c-.396 0-.698-.315-.698-.725V9.208c0-.41.302-.725.698-.725zm13.97 4.834h3.725c.396 0 .699.314.699.725v7.25c0 .41-.303.725-.699.725h-3.725c-.396 0-.699-.314-.699-.725v-7.25c0-.411.303-.725.699-.725zm-6.52 3.866c-.372 0-.698.339-.698.725 0 .387.326.725.699.725.372 0 .698-.338.698-.725 0-.386-.326-.725-.698-.725zm0 .484c.14 0 .233.096.233.241s-.093.242-.232.242c-.14 0-.233-.097-.233-.242s.093-.241.233-.241zm8.383 2.416c-.373 0-.699.339-.699.725 0 .387.326.725.699.725.372 0 .698-.338.698-.725 0-.386-.326-.725-.698-.725zm0 .484c.14 0 .232.096.232.241s-.093.242-.232.242c-.14 0-.233-.097-.233-.242s.093-.241.233-.241z"/>
    </defs>
    <use fill="#C8102E" fill-rule="evenodd" xlink:href="#a"/>
</svg>
