<svg xmlns="http://www.w3.org/2000/svg" width="24" height="24" viewBox="0 0 24 24">
    <g fill="#C8102E" fill-rule="evenodd">
        <path fill-rule="nonzero" d="M12 4a2.5 2.5 0 0 0-2.5 2.5v6a2.5 2.5 0 1 0 5 0v-6A2.5 2.5 0 0 0 12 4zm0-1a3.5 3.5 0 0 1 3.5 3.5v6a3.5 3.5 0 0 1-7 0v-6A3.5 3.5 0 0 1 12 3z"/>
        <path d="M12 17a.5.5 0 0 1 .5.5V22h-1v-4.5a.5.5 0 0 1 .5-.5z"/>
        <path fill-rule="nonzero" d="M16.583 12V9.458a.458.458 0 0 1 .917 0V12c0 3.314-2.462 6-5.5 6s-5.5-2.686-5.5-6V9.458a.458.458 0 1 1 .917 0V12c0 2.761 2.052 5 4.583 5s4.583-2.239 4.583-5z"/>
        <path d="M6 10h5a.5.5 0 0 1 0 1H6a.5.5 0 0 1 0-1zM15 10h3a.5.5 0 1 1 0 1h-3a.5.5 0 0 1 0-1zM9 8h2a.5.5 0 0 1 0 1H9a.5.5 0 0 1 0-1zM8.5 12H11a.5.5 0 0 1 0 1H9.5a1 1 0 0 1-1-1z"/>
    </g>
</svg>
