<?xml version="1.0" encoding="utf-8"?>
<!-- Generator: Adobe Illustrator 16.0.0, SVG Export Plug-In . SVG Version: 6.00 Build 0)  -->
<!DOCTYPE svg PUBLIC "-//W3C//DTD SVG 1.1//EN" "http://www.w3.org/Graphics/SVG/1.1/DTD/svg11.dtd">
<svg version="1.1" id="Layer_1" xmlns="http://www.w3.org/2000/svg" xmlns:xlink="http://www.w3.org/1999/xlink" x="0px" y="0px"
	 width="1000px" height="542.625px" viewBox="0 0 1000 542.625" enable-background="new 0 0 1000 542.625" xml:space="preserve">
<g>
	<polygon fill="#006BB5" points="0,430.512 26.771,430.512 45.924,501.959 46.198,501.959 46.198,430.512 67.83,430.512 
		67.83,540.463 41.476,540.463 21.09,464.694 20.812,464.694 20.812,540.463 0,540.463 	"/>
	<path fill="#006BB5" d="M77.4,430.512h36.192c16.915,0,28.161,8.785,28.161,27.102c0,12.783-6.11,22.779-15.54,24.791v0.311
		c7.353,1.238,18.316,4.771,18.316,27.248c0,12.939-5.132,30.5-32.732,30.5H77.4V430.512z M100.697,474.395h6.377
		c8.046,0,11.368-5.076,11.368-12.939c0-5.688-2.772-11.855-11.231-11.855h-6.514V474.395z M100.697,521.368h7.07
		c9.443,0,12.622-6.611,12.622-14.311c0-10.785-4.995-15.41-12.203-15.41h-7.489V521.368z"/>
	<path fill="#006BB5" d="M170.467,430.512h29.121l24.688,109.959h-24.135l-3.611-20.957h-23.715l-3.467,20.957h-24.131
		L170.467,430.512z M184.608,450.532h-0.281l-8.18,48.979h16.915L184.608,450.532z"/>
	<polygon fill="#006BB5" points="267.123,430.512 290.426,430.512 290.426,519.514 324.128,519.514 324.128,540.463 
		267.123,540.463 	"/>
	<polygon fill="#006BB5" points="329.952,430.512 387.244,430.512 387.244,451.446 353.263,451.446 353.263,473.479 
		385.161,473.479 385.161,494.413 353.263,494.413 353.263,519.514 388.772,519.514 388.772,540.463 329.952,540.463 	"/>
	<path fill="#006BB5" d="M416.926,430.512h29.128l24.687,109.959h-24.137l-3.597-20.957h-23.729l-3.467,20.957h-24.135
		L416.926,430.512z M431.061,450.532h-0.268l-8.187,48.979h16.915L431.061,450.532z"/>
	<path fill="#006BB5" d="M514.839,463.926c0-7.074-0.69-18.33-9.306-18.33c-9.566,0-10.669,10.791-10.669,40.047
		c0,30.029,1.383,39.73,10.669,39.73c7.911,0,10.699-8.006,10.699-23.09v-3.547h-10.968v-17.262h32.592v58.996h-15.95l-0.55-10.475
		h-0.274c-3.604,9.855-12.354,12.621-21.36,12.621c-24.831,0-28.998-20.475-28.998-54.82c0-36.027,2.221-59.453,35.231-59.453
		c30.099,0,31.36,23.102,31.36,35.582H514.839z"/>
	<path fill="#006BB5" d="M611.221,504.127c0,21.568-5.54,38.49-32.585,38.49c-27.039,0-32.6-16.922-32.6-38.49v-73.615h23.308
		v81.162c0,8.615,3.055,13.699,9.292,13.699c6.243,0,9.298-5.084,9.298-13.699v-81.162h23.287V504.127z"/>
	<polygon fill="#006BB5" points="620.935,430.512 678.22,430.512 678.22,451.446 644.241,451.446 644.241,473.479 676.136,473.479 
		676.136,494.413 644.241,494.413 644.241,519.514 679.755,519.514 679.755,540.463 620.935,540.463 	"/>
	<path fill="#006BB5" d="M724.271,430.512h36.069c24.539,0,29.262,19.709,29.262,33.414c0,19.717-8.468,33.557-31.768,33.557h-10.27
		v42.98h-23.294V430.512z M747.564,478.399h6.391c9.285,0,11.509-6.469,11.509-13.859c0-8.477-2.498-14.939-11.931-14.939h-5.969
		V478.399z"/>
	<path fill="#006BB5" d="M806.518,430.512h29.129l24.681,109.959h-24.132l-3.604-20.957h-23.723l-3.463,20.957h-24.13
		L806.518,430.512z M820.652,450.532h-0.267l-8.194,48.979h16.923L820.652,450.532z"/>
	<path fill="#006BB5" d="M884.315,506.895v3.85c0,8.307,2.097,14.629,10.122,14.629c8.195,0,10.56-6.771,10.56-13.088
		c0-23.721-42.601-10.467-42.601-51.59c0-17.555,8.475-32.338,32.465-32.338c23.3,0,31.619,13.078,31.619,30.029v2.611h-22.469
		c0-5.23-0.557-9.088-1.942-11.551c-1.381-2.611-3.604-3.852-7.075-3.852c-5.835,0-9.291,3.852-9.291,11.861
		c0,22.936,42.58,11.402,42.58,50.205c0,24.947-12.473,34.963-33.846,34.963c-16.914,0-32.592-5.703-32.592-28.656v-7.074H884.315z"
		/>
	<path fill="#006BB5" d="M956.031,506.895v3.85c0,8.307,2.071,14.629,10.123,14.629c8.18,0,10.531-6.771,10.531-13.088
		c0-23.721-42.572-10.467-42.572-51.59c0-17.555,8.452-32.338,32.449-32.338c23.3,0,31.635,13.078,31.635,30.029v2.611h-22.469
		c0-5.23-0.564-9.088-1.943-11.551c-1.394-2.611-3.604-3.852-7.08-3.852c-5.822,0-9.293,3.852-9.293,11.861
		c0,22.936,42.588,11.402,42.588,50.205c0,24.947-12.488,34.963-33.846,34.963c-16.922,0-32.592-5.703-32.592-28.656v-7.074H956.031
		z"/>
	<path fill="#FFFFFF" d="M538.068,355.317c15.923,0,28.86-12.762,28.86-28.803V37.713c0-15.916-12.924-28.819-28.819-28.819h-85.29
		c-15.885,0-28.802,12.903-28.802,28.819v288.801c0,15.936,12.917,28.803,28.802,28.803H538.068z"/>
	<path fill="#FFFFFF" d="M452.826,0c-20.791,0-37.699,16.916-37.699,37.713v288.801c0,20.779,16.908,37.709,37.699,37.709h85.234
		c20.83,0,37.772-16.93,37.772-37.709V37.713C575.833,16.916,558.905,0,538.104,0H452.826z M432.922,326.514V37.713
		c0-10.985,8.934-19.932,19.904-19.932h85.278c10.994,0,19.912,8.947,19.912,19.932v288.801c0,10.973-8.946,19.918-19.956,19.918
		h-85.234C441.855,346.432,432.922,337.487,432.922,326.514"/>
	<path fill="#0067AB" d="M532.704,313.483c-2.992-12.615-13.037-20.266-7.862-24.418c-1.303-4.182-3.858-9.42-3.768-9.363
		c-15.619-9.014-28.973-23.588-31.231-25.651c-2.704-3.041-7.367-6.04-8.244-8.44c-3.763-3.453-22.209-29.583-26.425-39.191
		l-7.497-0.989c-3.396-13.888-14.727-25.567-15.008-39.522c-0.138-5.248,2.387-16.508,3.302-18.749
		c0.888-2.264,5.254-6.019,5.254-6.019v-3.755c-16.326,0.486-11.597-1.197-14.409-7.49c-1.988-4.411-0.599-5.368,0.131-8.434
		c2.146-8.908,9.432-22.821,12.47-29.121c0.908-3.136,4.045-10.781,4.045-10.781c12.159-24.761,16.647-22.98,31.063-24.328
		l0.754-1.053c14.473-0.609,12.143-1.746,14.103-15.638c-2.073,0.926-2.692-4.336-2.692-4.336c-1.162-7.95,2.169-6.423,3.752-6.596
		c0.369-13.005,1.661-17.105,11.107-20.709h-48.725c-15.896,0-28.806,12.896-28.806,28.812v288.801
		c0,15.949,12.91,28.803,28.806,28.803h85.286c-9.742-5.223-3.97-15.232-3.688-34.359
		C529.859,316.833,532.914,315.124,532.704,313.483"/>
	<path fill="#ED174C" d="M517.084,67.968c2.583,1.563,3.921,2.759,6.568,4.462c6.89,4.403,15.486,12.167,14.374,38.987
		c1.956,5.86,2.814,17.338,4.653,20.985c3.603,7.243,6.018,11.907,7.061,18.639c0,0,1.047,10.598,2.392,11.34
		c7.224,1.651,5.11,2.341,6.167,3.598c1.147,1.433,5.293,1.383,5.293,5.233c1.464,1.936,2.5,3.9,3.344,6.018V37.716
		c0-15.916-12.924-28.818-28.826-28.818h-27.551c4.42,1.583,6.899,3.459,8.412,6.37c3.541,0.31,7.721,8.289,1.162,20.041
		c2.886,1.922,0.639,4.892-1.395,8.261c-0.675,1.059-1.359,3.006-3.238,2.862c-2.598,5.296-5.575,10.378-7.841,10.689
		c-0.678,0.834-1.155,3.09-0.177,4.167c3.351,1.485,7.447,3.537,9.453,5.477L517.084,67.968z"/>
	<path fill="#ED174C" d="M542.426,355.043c12.613-7.68,4.765-22.201,2.379-30.754c-0.148-0.465,0.218-1.113,0.43-1.521
		c0.634-1.154-0.719-3.9-0.719-3.9c-1.5-1.314-1.9-8.432-2.724-11.699c-1.373-5.393,2.4-14.684,2.4-17.865
		c0-3.141-2.4-7.512-6.758-13.08c-1.056-1.182-4.224-28.265-7.053-35.107c-3.9-9.478-5.09-7.972-9.758-19.217
		c-3.618-7.943-0.737-19.671-8.876-46.828c0.085,0.133,1.811-1.669,1.811-1.669s-6.435-23.539-8.548-29.998
		c-2.101-6.452-5.835-6.905-5.835-6.905s0-2.647,0.201-3.316c0.303-1.059,7.83-20.688,8.486-21.308
		c0.034-0.454,10.896-7.88,11.107-6.746c0.916,4.793,5.111,29.265,6.935,33.148c1.779,3.938,8.079,15.926,10.994,23.349
		c-11.263,2.739-19.625,12.911-19.625,25.004c0,14.215,11.501,25.715,25.735,25.715c10.827,0,20.132-6.733,23.919-16.24v130.411
		c0,14.514-10.418,26.381-24.244,28.508L542.426,355.043z"/>
	<polygon fill="#FFFFFF" points="439.373,292.225 449.134,292.225 455.99,315.946 456.271,317.67 456.363,317.67 456.363,292.225 
		465.015,292.225 465.015,335.411 455.317,335.411 448.335,310.217 448.096,308.704 448.012,308.704 448.012,335.411 
		439.373,335.411 	"/>
	<path fill="#FFFFFF" d="M468.429,292.225h14.047c7.261,0,10.777,2.744,10.777,10.129c0,4.568-0.655,8.559-5.449,10.199v0.092
		c4.858,0.867,6.536,4.498,6.536,9.947c0,7.258-2.643,12.818-11.502,12.818h-14.409V292.225z M478.649,328.034h2.964
		c3.295,0,3.667-1.592,3.667-5.898c0-2.957-0.372-5.83-3.446-5.83h-3.185V328.034z M478.649,309.323h2.753
		c3.143,0,3.459-2.371,3.459-5.074c0-2.992-0.661-4.682-3.083-4.682h-3.129V309.323z"/>
	<path fill="#FFFFFF" d="M502.59,292.217h13.178l8.103,43.193h-10.426l-0.915-9.488h-6.99l-0.991,9.488h-9.965L502.59,292.217z
		 M509.053,299.721l-2.485,19.449h5.005l-2.281-19.449l-0.063-1h-0.092L509.053,299.721z"/>
	<rect x="298.208" y="389.375" fill="#006BB5" width="401.565" height="7.129"/>
</g>
</svg>
